<?xml version="1.0" encoding="UTF-8" ?>
<!DOCTYPE svg PUBLIC "-//W3C//DTD SVG 1.1//EN" "http://www.w3.org/Graphics/SVG/1.1/DTD/svg11.dtd">
<svg width="159pt" height="316pt" viewBox="0 0 159 316" version="1.1" xmlns="http://www.w3.org/2000/svg">
<g id="#ffffffff">
</g>
<g id="#312da2ff">
<path fill="#312da2" opacity="1.00" d=" M 125.36 0.00 L 125.84 0.00 C 125.84 1.17 125.82 2.34 125.79 3.51 C 124.71 4.73 123.67 5.99 122.69 7.28 C 122.19 6.64 121.19 5.37 120.68 4.73 C 122.27 3.18 123.87 1.64 125.36 0.00 Z" />
</g>
<g id="#232eb4ff">
<path fill="#232eb4" opacity="1.00" d=" M 109.91 15.32 C 113.57 11.86 117.12 8.29 120.68 4.73 C 121.19 5.37 122.19 6.64 122.69 7.28 C 121.33 9.10 119.99 10.93 118.67 12.77 C 118.26 12.26 117.44 11.24 117.04 10.73 C 114.88 12.50 113.18 15.93 109.91 15.32 Z" />
</g>
<g id="#274be3ff">
<path fill="#274be3" opacity="1.00" d=" M 109.91 15.32 C 113.18 15.93 114.88 12.50 117.04 10.73 C 117.44 11.24 118.26 12.26 118.67 12.77 C 115.12 17.95 111.12 22.84 106.72 27.33 C 107.34 25.81 107.91 24.28 108.49 22.75 C 108.43 22.36 108.32 21.56 108.26 21.16 C 107.29 21.70 106.32 22.23 105.35 22.76 C 105.21 23.26 104.94 24.26 104.80 24.76 C 104.24 24.38 103.69 24.01 103.13 23.64 C 101.48 23.64 99.83 23.64 98.19 23.69 C 102.45 21.43 106.25 18.44 109.91 15.32 Z" />
</g>
<g id="#3160f6ff">
<path fill="#3160f6" opacity="1.00" d=" M 105.35 22.76 C 106.32 22.23 107.29 21.70 108.26 21.16 C 108.32 21.56 108.43 22.36 108.49 22.75 C 107.91 24.28 107.34 25.81 106.72 27.33 C 102.13 32.48 96.00 36.06 89.59 38.45 C 85.54 39.97 80.83 40.04 77.02 37.84 C 72.49 35.37 67.58 33.76 62.82 31.83 C 57.43 26.40 49.26 29.64 42.78 30.74 C 48.19 25.11 56.84 26.48 63.62 24.00 C 71.48 26.72 79.86 26.82 88.09 26.68 C 91.68 26.66 94.93 24.99 98.19 23.69 C 99.83 23.64 101.48 23.64 103.13 23.64 C 103.69 24.01 104.24 24.38 104.80 24.76 C 104.94 24.26 105.21 23.26 105.35 22.76 Z" />
</g>
<g id="#3b5deeff">
<path fill="#3b5dee" opacity="1.00" d=" M 40.20 29.19 C 47.23 25.18 55.49 22.78 63.62 24.00 C 56.84 26.48 48.19 25.11 42.78 30.74 C 49.26 29.64 57.43 26.40 62.82 31.83 C 58.83 31.05 54.77 29.77 50.68 30.52 C 46.62 31.31 42.62 32.41 38.73 33.82 C 34.58 35.32 30.53 37.81 25.94 37.30 C 30.36 34.04 35.30 31.63 40.20 29.19 Z" />
</g>
<g id="#040accff">
<path fill="#040acc" opacity="1.00" d=" M 10.57 47.53 C 25.85 40.56 42.25 35.80 59.02 34.37 C 63.27 33.73 67.03 36.26 69.95 39.03 C 73.31 42.80 74.45 48.00 74.60 52.92 C 74.93 60.36 74.35 67.83 73.15 75.18 L 73.07 74.48 C 72.50 66.31 73.05 58.09 72.59 49.90 C 72.20 51.20 71.82 52.51 71.44 53.82 C 69.07 53.94 66.58 54.52 64.29 53.65 C 62.57 51.80 61.70 49.38 60.60 47.15 C 59.61 48.65 58.60 50.13 57.44 51.50 C 57.41 49.46 58.43 46.95 56.84 45.24 C 54.85 43.86 52.34 43.54 49.99 43.80 C 42.33 44.63 34.91 46.80 27.46 48.63 C 18.63 51.21 9.13 52.36 1.38 57.71 C 2.65 53.12 6.17 49.33 10.57 47.53 Z" />
<path fill="#040acc" opacity="1.00" d=" M 110.51 194.10 C 116.22 198.73 119.76 205.41 122.54 212.09 C 124.80 217.47 123.10 223.60 119.85 228.20 C 121.07 223.38 122.90 218.26 121.43 213.30 C 119.36 208.64 116.53 204.35 114.04 199.90 C 113.94 200.39 113.72 201.36 113.61 201.85 C 114.53 206.01 115.59 210.14 117.01 214.17 C 117.98 216.41 116.46 218.43 115.40 220.28 C 115.89 216.59 115.46 212.89 113.68 209.60 C 112.30 204.54 110.59 199.40 110.51 194.10 Z" />
</g>
<g id="#0b16cfff">
<path fill="#0b16cf" opacity="1.00" d=" M 57.44 51.50 C 58.60 50.13 59.61 48.65 60.60 47.15 C 61.70 49.38 62.57 51.80 64.29 53.65 C 66.58 54.52 69.07 53.94 71.44 53.82 C 71.82 52.51 72.20 51.20 72.59 49.90 C 73.05 58.09 72.50 66.31 73.07 74.48 C 73.27 76.32 72.59 78.09 72.29 79.89 C 71.92 78.85 71.54 77.80 71.17 76.76 C 65.74 75.01 59.72 73.54 54.10 75.28 C 53.71 73.72 53.32 72.17 52.94 70.62 C 54.85 64.58 56.04 58.35 56.95 52.09 L 57.44 51.50 Z" />
</g>
<g id="#1020cfff">
<path fill="#1020cf" opacity="1.00" d=" M 52.94 70.62 C 53.32 72.17 53.71 73.72 54.10 75.28 C 59.72 73.54 65.74 75.01 71.17 76.76 C 71.54 77.80 71.92 78.85 72.29 79.89 C 70.72 87.34 68.92 94.74 67.06 102.12 C 66.98 99.82 66.77 97.53 66.60 95.24 C 59.89 96.64 53.01 95.58 46.25 96.39 C 47.88 87.65 50.75 79.22 52.94 70.62 Z" />
</g>
<g id="#0a15cfff">
<path fill="#0a15cf" opacity="1.00" d=" M 82.23 100.04 C 86.63 96.21 91.76 91.90 97.98 92.28 C 100.55 92.31 102.99 93.32 105.21 94.57 C 114.81 100.07 122.44 108.49 128.11 117.91 C 128.16 118.47 128.27 119.61 128.32 120.17 C 125.49 119.67 122.72 118.85 120.18 117.50 C 120.01 117.98 119.68 118.93 119.51 119.41 C 118.46 119.78 117.41 120.15 116.36 120.52 C 116.18 121.75 116.00 122.98 115.82 124.22 C 111.25 117.12 104.79 111.42 97.66 107.02 C 96.58 105.40 94.47 105.53 93.31 106.99 C 92.69 107.50 92.05 108.01 91.41 108.51 C 89.75 107.61 88.03 106.83 86.27 106.17 C 86.11 105.71 85.80 104.81 85.64 104.36 C 84.85 105.26 84.05 106.16 83.25 107.06 C 82.80 106.67 81.89 105.88 81.44 105.49 C 79.98 107.34 79.19 110.32 76.54 110.72 C 78.00 107.05 79.45 103.22 82.07 100.21 C 82.11 100.17 82.19 100.08 82.23 100.04 Z" />
</g>
<g id="#192ad5ff">
<path fill="#192ad5" opacity="1.00" d=" M 46.25 96.39 C 53.01 95.58 59.89 96.64 66.60 95.24 C 66.77 97.53 66.98 99.82 67.06 102.12 C 66.24 108.73 64.12 115.24 64.60 121.97 C 65.09 127.82 65.29 133.78 67.30 139.36 C 66.79 138.92 65.76 138.03 65.25 137.59 C 64.15 132.70 64.46 126.72 59.92 123.49 C 58.95 124.96 57.99 126.44 57.03 127.92 C 56.35 126.93 55.66 125.95 54.97 124.97 C 52.44 124.81 49.90 124.65 47.36 124.47 C 47.03 125.61 46.70 126.76 46.39 127.92 L 46.19 128.65 C 43.76 118.06 43.86 107.04 45.98 96.41 L 46.25 96.39 Z" />
</g>
<g id="#000076ff">
<path fill="#000076" opacity="1.00" d=" M 82.07 100.21 C 82.11 100.17 82.19 100.08 82.23 100.04 C 82.19 100.08 82.11 100.17 82.07 100.21 Z" />
</g>
<g id="#1120cfff">
<path fill="#1120cf" opacity="1.00" d=" M 83.25 107.06 C 84.05 106.16 84.85 105.26 85.64 104.36 C 85.80 104.81 86.11 105.71 86.27 106.17 C 88.03 106.83 89.75 107.61 91.41 108.51 L 89.67 108.78 C 87.86 108.74 85.55 109.85 86.40 112.01 L 86.50 112.69 C 83.19 116.35 83.86 121.51 82.57 125.91 C 82.21 123.73 81.85 121.55 81.52 119.36 C 80.02 119.51 78.48 119.52 77.05 120.03 C 75.02 122.61 73.72 125.72 72.92 128.89 C 72.11 131.15 73.73 133.31 75.29 134.78 C 77.34 136.46 80.19 136.11 82.65 136.32 C 78.96 139.38 73.23 136.47 71.45 132.69 C 70.94 125.09 73.69 117.65 76.54 110.72 C 79.19 110.32 79.98 107.34 81.44 105.49 C 81.89 105.88 82.80 106.67 83.25 107.06 Z" />
</g>
<g id="#070c88ff">
<path fill="#070c88" opacity="1.00" d=" M 93.31 106.99 C 94.47 105.53 96.58 105.40 97.66 107.02 C 96.45 107.83 94.55 107.65 93.31 106.99 Z" />
</g>
<g id="#1d229dff">
<path fill="#1d229d" opacity="1.00" d=" M 86.40 112.01 C 85.55 109.85 87.86 108.74 89.67 108.78 C 89.69 110.32 87.70 111.47 86.40 112.01 Z" />
</g>
<g id="#1b2ed7ff">
<path fill="#1b2ed7" opacity="1.00" d=" M 120.18 117.50 C 122.72 118.85 125.49 119.67 128.32 120.17 C 128.36 121.13 128.40 122.08 128.44 123.04 C 131.49 123.75 131.92 127.13 133.04 129.57 C 132.60 130.42 131.71 132.12 131.27 132.97 C 130.32 132.08 129.38 131.20 128.43 130.32 C 127.99 131.15 127.55 131.98 127.12 132.82 C 127.66 133.50 128.21 134.18 128.75 134.86 C 127.39 136.56 126.13 138.35 125.20 140.32 C 122.25 134.85 119.25 129.40 115.82 124.22 C 116.00 122.98 116.18 121.75 116.36 120.52 C 117.41 120.15 118.46 119.78 119.51 119.41 C 119.68 118.93 120.01 117.98 120.18 117.50 Z" />
</g>
<g id="#435bb4ff">
<path fill="#435bb4" opacity="1.00" d=" M 128.11 117.91 C 140.40 136.25 142.73 158.71 147.22 179.77 C 149.73 187.95 149.05 196.59 149.15 205.03 C 149.20 207.86 149.08 210.71 148.55 213.50 C 147.37 209.03 146.53 204.48 146.09 199.88 C 146.61 201.05 147.16 202.21 147.75 203.35 C 149.82 192.08 146.05 181.02 144.13 170.03 C 142.27 162.20 141.57 154.12 138.85 146.50 C 138.55 140.42 135.24 135.10 133.04 129.57 C 131.92 127.13 131.49 123.75 128.44 123.04 C 128.40 122.08 128.36 121.13 128.32 120.17 C 128.27 119.61 128.16 118.47 128.11 117.91 Z" />
<path fill="#435bb4" opacity="1.00" d=" M 150.46 273.44 C 152.48 278.00 152.66 283.08 153.67 287.92 C 154.52 291.79 153.90 296.05 155.84 299.63 C 156.97 293.02 155.47 286.22 157.23 279.69 C 157.50 289.50 156.81 299.33 155.94 309.09 C 154.18 306.74 154.92 303.61 154.28 300.91 C 153.36 291.71 151.34 282.64 150.46 273.44 Z" />
</g>
<g id="#1831dbff">
<path fill="#1831db" opacity="1.00" d=" M 77.05 120.03 C 78.48 119.52 80.02 119.51 81.52 119.36 C 81.85 121.55 82.21 123.73 82.57 125.91 C 82.67 129.38 82.53 132.85 82.65 136.32 C 80.19 136.11 77.34 136.46 75.29 134.78 C 73.73 133.31 72.11 131.15 72.92 128.89 C 73.72 125.72 75.02 122.61 77.05 120.03 Z" />
</g>
<g id="#1e3adaff">
<path fill="#1e3ada" opacity="1.00" d=" M 47.36 124.47 C 49.90 124.65 52.44 124.81 54.97 124.97 C 55.66 125.95 56.35 126.93 57.03 127.92 C 57.99 126.44 58.95 124.96 59.92 123.49 C 64.46 126.72 64.15 132.70 65.25 137.59 C 65.76 138.03 66.79 138.92 67.30 139.36 C 68.81 141.30 69.75 143.71 71.74 145.25 C 76.67 149.15 82.86 150.95 88.06 154.44 C 93.93 158.26 100.41 161.17 105.93 165.49 C 100.92 164.81 97.15 161.26 92.72 159.20 C 91.92 158.75 91.02 159.20 90.19 159.25 C 87.57 158.24 85.16 156.76 82.55 155.74 C 79.03 154.71 75.27 154.86 71.72 155.64 C 73.44 157.03 75.17 158.42 76.87 159.84 C 76.20 160.78 75.54 161.72 74.87 162.67 C 59.88 157.49 48.47 143.63 46.39 127.92 C 46.70 126.76 47.03 125.61 47.36 124.47 Z" />
</g>
<g id="#1f3fdfff">
<path fill="#1f3fdf" opacity="1.00" d=" M 127.12 132.82 C 127.55 131.98 127.99 131.15 128.43 130.32 C 129.38 131.20 130.32 132.08 131.27 132.97 C 131.71 132.12 132.60 130.42 133.04 129.57 C 135.24 135.10 138.55 140.42 138.85 146.50 C 136.75 148.50 137.55 151.27 138.11 153.74 C 137.03 153.12 135.95 152.50 134.87 151.89 C 133.59 155.80 136.97 159.32 136.28 163.33 C 132.76 155.58 129.39 147.74 125.20 140.32 C 126.13 138.35 127.39 136.56 128.75 134.86 C 128.21 134.18 127.66 133.50 127.12 132.82 Z" />
</g>
<g id="#2a55f0ff">
<path fill="#2a55f0" opacity="1.00" d=" M 138.11 153.74 C 137.55 151.27 136.75 148.50 138.85 146.50 C 141.57 154.12 142.27 162.20 144.13 170.03 C 146.05 181.02 149.82 192.08 147.75 203.35 C 147.16 202.21 146.61 201.05 146.09 199.88 C 144.40 190.23 142.49 180.56 139.03 171.36 C 138.24 168.64 136.87 166.10 136.28 163.33 C 136.97 159.32 133.59 155.80 134.87 151.89 C 135.95 152.50 137.03 153.12 138.11 153.74 Z" />
</g>
<g id="#2649e7ff">
<path fill="#2649e7" opacity="1.00" d=" M 71.72 155.64 C 75.27 154.86 79.03 154.71 82.55 155.74 C 85.16 156.76 87.57 158.24 90.19 159.25 C 91.02 159.20 91.92 158.75 92.72 159.20 C 97.15 161.26 100.92 164.81 105.93 165.49 C 108.51 166.55 110.60 168.52 112.82 170.15 C 117.90 174.41 123.42 178.18 128.00 183.01 C 123.98 183.72 119.93 184.64 117.12 187.83 C 115.33 186.97 113.73 185.79 112.11 184.65 C 113.07 186.32 115.11 187.86 114.37 190.03 C 105.44 182.29 95.45 175.92 85.75 169.21 C 82.26 166.81 78.64 164.61 74.87 162.67 C 75.54 161.72 76.20 160.78 76.87 159.84 C 75.17 158.42 73.44 157.03 71.72 155.64 Z" />
</g>
<g id="#2c57f1ff">
<path fill="#2c57f1" opacity="1.00" d=" M 117.12 187.83 C 119.93 184.64 123.98 183.72 128.00 183.01 C 133.41 187.85 137.36 194.06 140.71 200.43 C 147.55 212.76 152.71 226.10 155.40 239.96 C 155.33 245.39 153.16 250.59 153.53 256.08 C 153.33 253.89 153.12 251.71 152.92 249.52 C 152.12 249.53 151.32 249.53 150.53 249.54 C 150.06 247.56 149.56 245.60 148.93 243.67 C 147.72 246.02 146.95 248.56 146.60 251.18 C 144.45 241.14 140.04 231.81 134.99 222.93 C 131.43 216.60 129.63 209.45 125.96 203.18 C 123.06 198.05 118.88 193.76 114.37 190.03 C 115.11 187.86 113.07 186.32 112.11 184.65 C 113.73 185.79 115.33 186.97 117.12 187.83 Z" />
</g>
<g id="#1628d3ff">
<path fill="#1628d3" opacity="1.00" d=" M 114.04 199.90 C 116.53 204.35 119.36 208.64 121.43 213.30 C 122.90 218.26 121.07 223.38 119.85 228.20 C 116.84 234.52 113.45 240.69 109.86 246.69 C 110.47 240.33 115.71 235.48 115.80 228.97 C 114.54 228.97 113.28 228.97 112.03 228.99 C 113.36 226.16 114.00 223.06 115.40 220.28 C 116.46 218.43 117.98 216.41 117.01 214.17 C 115.59 210.14 114.53 206.01 113.61 201.85 C 113.72 201.36 113.94 200.39 114.04 199.90 Z" />
</g>
<g id="#284be9ff">
<path fill="#284be9" opacity="1.00" d=" M 112.03 228.99 C 113.28 228.97 114.54 228.97 115.80 228.97 C 115.71 235.48 110.47 240.33 109.86 246.69 C 109.66 247.71 109.13 248.62 108.65 249.53 C 103.28 258.84 98.26 268.35 92.85 277.64 C 93.10 278.54 94.41 281.73 92.06 278.94 C 87.80 287.25 83.51 295.55 78.96 303.71 C 79.86 296.92 83.04 290.74 85.47 284.42 C 90.20 273.79 96.13 263.74 101.02 253.19 C 101.61 252.09 101.99 250.81 102.93 249.95 C 103.19 249.50 103.71 248.60 103.98 248.15 C 105.84 241.54 109.58 235.46 112.03 228.99 Z" />
</g>
<g id="#3362f9ff">
<path fill="#3362f9" opacity="1.00" d=" M 155.40 239.96 C 157.71 253.05 157.74 266.46 157.23 279.69 C 155.47 286.22 156.97 293.02 155.84 299.63 C 153.90 296.05 154.52 291.79 153.67 287.92 C 152.66 283.08 152.48 278.00 150.46 273.44 C 149.42 270.77 149.48 267.84 148.97 265.05 C 148.43 260.39 147.12 255.84 146.60 251.18 C 146.95 248.56 147.72 246.02 148.93 243.67 C 149.56 245.60 150.06 247.56 150.53 249.54 C 151.32 249.53 152.12 249.53 152.92 249.52 C 153.12 251.71 153.33 253.89 153.53 256.08 C 153.16 250.59 155.33 245.39 155.40 239.96 Z" />
</g>
<g id="#5969b1ff">
<path fill="#5969b1" opacity="1.00" d=" M 103.08 248.20 L 103.98 248.15 C 103.71 248.60 103.19 249.50 102.93 249.95 L 102.54 249.12 L 103.08 248.20 Z" />
</g>
</svg>
