<?xml version="1.0" encoding="UTF-8" ?>
<!DOCTYPE svg PUBLIC "-//W3C//DTD SVG 1.1//EN" "http://www.w3.org/Graphics/SVG/1.1/DTD/svg11.dtd">
<svg width="250pt" height="134pt" viewBox="0 0 250 134" version="1.1" xmlns="http://www.w3.org/2000/svg">
<g id="#008484ff">
</g>
<g id="#ffff78ff">
<path fill="#ffff78" opacity="1.00" d=" M 102.75 18.83 C 117.88 12.08 136.07 12.62 150.75 20.32 C 162.94 26.34 172.44 37.12 177.62 49.62 C 176.60 49.17 175.59 48.71 174.58 48.26 C 170.07 37.12 161.01 28.21 150.66 22.36 C 144.27 18.87 137.11 17.11 129.98 15.90 C 111.07 14.35 91.59 22.99 80.49 38.50 C 78.84 41.17 76.09 43.80 76.29 47.11 L 76.68 47.25 C 75.48 47.88 74.23 48.41 73.00 48.96 C 78.73 35.67 89.35 24.49 102.75 18.83 Z" />
<path fill="#ffff78" opacity="1.00" d=" M 70.55 56.71 C 70.87 56.57 71.50 56.29 71.81 56.15 C 71.46 58.13 71.09 60.12 70.77 62.11 C 67.73 80.58 75.22 100.43 89.93 112.07 C 103.63 123.53 123.11 127.03 140.16 122.21 C 153.13 118.71 164.51 109.96 171.57 98.58 C 178.53 86.99 181.31 72.81 178.41 59.54 C 178.30 58.77 178.06 57.22 177.95 56.45 C 178.45 56.66 179.45 57.06 179.95 57.27 C 186.27 80.81 174.82 107.79 153.40 119.49 C 137.10 128.89 116.03 129.41 99.33 120.72 C 76.32 109.63 63.69 81.27 70.55 56.71 Z" />
</g>
<g id="#ffce00ff">
<path fill="#ffce00" opacity="1.00" d=" M 80.49 38.50 C 91.59 22.99 111.07 14.35 129.98 15.90 C 137.11 17.11 144.27 18.87 150.66 22.36 C 161.01 28.21 170.07 37.12 174.58 48.26 C 173.93 47.98 172.64 47.41 171.99 47.12 C 168.01 45.44 164.11 43.56 160.17 41.81 C 155.80 41.13 151.37 41.48 146.97 41.43 C 128.98 41.40 110.99 41.46 93.00 41.39 C 90.97 41.39 88.96 41.66 86.99 42.10 C 90.43 38.93 93.28 35.09 97.20 32.45 C 102.17 29.18 107.05 25.58 112.75 23.69 C 116.50 22.46 119.95 20.51 123.14 18.21 C 113.68 18.12 104.06 21.09 96.69 27.10 C 89.66 31.60 83.27 37.62 80.06 45.48 C 78.93 46.07 77.81 46.68 76.68 47.25 L 76.29 47.11 C 76.09 43.80 78.84 41.17 80.49 38.50 Z" />
<path fill="#ffce00" opacity="1.00" d=" M 97.17 51.11 C 98.52 50.97 99.88 50.83 101.24 50.68 C 100.41 53.91 100.91 57.24 102.19 60.27 C 100.80 60.45 99.41 60.64 98.02 60.83 C 97.06 60.43 96.21 59.28 96.10 58.20 C 96.39 55.83 96.80 53.47 97.17 51.11 Z" />
<path fill="#ffce00" opacity="1.00" d=" M 70.77 62.11 C 75.52 57.05 81.53 53.36 88.19 51.40 C 88.70 59.18 93.24 67.30 101.47 68.79 C 106.55 71.21 112.98 71.00 117.43 67.36 C 121.29 63.44 123.13 58.12 125.00 53.07 C 125.30 51.27 127.31 51.76 128.60 51.51 C 127.98 56.44 129.99 61.27 132.77 65.23 C 136.21 69.32 141.91 70.43 147.01 70.24 C 151.53 70.21 156.24 68.75 159.47 65.47 C 161.86 62.09 162.13 57.72 164.23 54.18 C 167.91 54.64 170.89 57.50 174.04 59.36 C 172.91 64.16 173.58 69.12 172.87 73.97 C 171.86 84.74 168.75 96.09 160.58 103.68 C 153.62 110.04 144.79 113.93 135.86 116.68 C 126.92 119.22 117.58 118.12 108.45 118.85 C 113.84 121.57 120.09 121.21 125.95 121.41 C 138.87 121.64 151.32 116.29 161.34 108.39 C 169.98 101.38 175.21 90.80 176.68 79.86 C 178.01 73.16 177.38 66.28 178.41 59.54 C 181.31 72.81 178.53 86.99 171.57 98.58 C 164.51 109.96 153.13 118.71 140.16 122.21 C 123.11 127.03 103.63 123.53 89.93 112.07 C 75.22 100.43 67.73 80.58 70.77 62.11 M 89.40 93.70 C 90.98 93.68 92.51 93.40 93.99 92.86 C 98.17 96.08 102.20 99.67 107.08 101.83 C 116.86 106.72 128.59 106.87 138.92 103.67 C 145.08 101.46 150.15 97.13 154.81 92.66 C 156.30 93.63 157.98 93.89 159.70 93.50 C 158.79 89.67 155.47 86.68 151.85 85.39 C 151.53 86.00 150.90 87.23 150.58 87.85 C 151.09 88.44 152.12 89.63 152.63 90.23 C 144.06 97.23 132.88 100.21 121.97 100.27 C 112.86 99.32 102.87 97.14 96.48 90.06 C 97.21 88.63 97.62 87.11 97.70 85.51 C 93.58 86.13 90.58 89.91 89.40 93.70 Z" />
</g>
<g id="#ffea32ff">
<path fill="#ffea32" opacity="1.00" d=" M 96.69 27.10 C 104.06 21.09 113.68 18.12 123.14 18.21 C 119.95 20.51 116.50 22.46 112.75 23.69 C 107.15 21.43 101.92 25.63 96.69 27.10 Z" />
</g>
<g id="#455656ff">
</g>
<g id="#ffff63ff">
<path fill="#ffff63" opacity="1.00" d=" M 96.69 27.10 C 101.92 25.63 107.15 21.43 112.75 23.69 C 107.05 25.58 102.17 29.18 97.20 32.45 C 93.28 35.09 90.43 38.93 86.99 42.10 C 84.68 43.22 82.35 44.31 80.06 45.48 C 83.27 37.62 89.66 31.60 96.69 27.10 Z" />
</g>
<g id="#586262ff">
</g>
<g id="#101010ff">
</g>
<g id="#000000ff">
<path fill="#000000" opacity="1.00" d=" M 91.60 43.74 C 100.04 43.83 108.48 43.28 116.91 43.66 C 116.31 48.90 116.47 54.41 114.31 59.32 C 110.39 65.23 100.61 67.05 95.69 61.36 C 92.04 56.33 91.37 49.79 91.60 43.74 M 94.84 47.44 C 94.26 51.09 94.80 54.76 96.10 58.20 C 96.21 59.28 97.06 60.43 98.02 60.83 C 102.66 64.62 111.72 62.71 112.67 56.23 C 112.97 54.45 113.22 52.66 113.41 50.87 C 113.37 50.00 113.30 48.27 113.27 47.41 C 107.13 47.40 100.98 47.36 94.84 47.44 Z" />
<path fill="#000000" opacity="1.00" d=" M 118.94 43.59 C 123.17 43.44 127.39 43.41 131.62 43.49 C 131.08 51.22 131.97 60.34 138.58 65.41 C 145.30 69.17 154.62 65.86 158.19 59.19 C 160.12 54.85 159.69 49.94 160.42 45.33 C 160.69 45.28 161.25 45.18 161.53 45.13 C 166.93 48.04 172.39 50.94 178.23 52.88 C 176.09 51.12 173.69 49.72 171.20 48.52 C 171.40 48.17 171.79 47.47 171.99 47.12 C 172.64 47.41 173.93 47.98 174.58 48.26 C 175.59 48.71 176.60 49.17 177.62 49.62 C 179.21 50.33 180.82 51.01 182.45 51.66 C 184.44 53.92 183.29 57.75 179.95 57.27 C 179.45 57.06 178.45 56.66 177.95 56.45 C 172.75 54.38 167.69 51.98 162.44 50.03 C 162.15 54.92 161.02 59.95 157.80 63.78 C 152.18 70.00 141.13 71.00 135.14 64.78 C 130.85 60.44 129.53 54.15 129.24 48.25 C 126.31 48.25 123.38 48.24 120.45 48.21 C 119.89 50.76 119.38 53.32 118.86 55.88 C 117.55 51.87 118.60 47.66 118.94 43.59 Z" />
<path fill="#000000" opacity="1.00" d=" M 132.55 43.47 C 141.27 43.46 150.00 43.32 158.72 43.35 C 158.30 47.22 157.96 51.11 157.52 54.98 C 156.83 64.58 141.48 68.76 136.34 60.41 C 132.84 55.44 133.88 49.11 132.55 43.47 M 137.18 47.41 C 136.20 51.41 137.31 55.39 138.45 59.22 C 138.82 59.62 139.55 60.43 139.91 60.83 L 140.16 60.81 C 144.54 64.66 153.74 62.67 154.67 56.46 C 155.09 54.62 155.40 52.75 155.59 50.87 C 155.55 50.01 155.47 48.27 155.42 47.40 C 149.34 47.41 143.26 47.38 137.18 47.41 Z" />
<path fill="#000000" opacity="1.00" d=" M 101.24 50.68 C 102.09 49.79 102.72 48.44 104.14 48.38 C 104.83 49.18 105.48 50.02 106.08 50.90 C 106.42 53.65 106.11 56.41 105.87 59.15 C 105.75 59.25 105.51 59.45 105.39 59.56 C 104.95 59.92 104.07 60.65 103.63 61.02 L 102.19 60.27 C 100.91 57.24 100.41 53.91 101.24 50.68 Z" />
<path fill="#000000" opacity="1.00" d=" M 142.91 50.84 C 143.58 49.85 144.26 48.87 144.96 47.90 C 145.85 48.86 146.77 49.81 147.61 50.82 C 148.48 54.03 147.85 57.30 146.83 60.39 C 146.06 60.44 144.53 60.54 143.77 60.59 C 142.68 57.46 142.16 54.12 142.91 50.84 Z" />
<path fill="#000000" opacity="1.00" d=" M 89.40 93.70 C 90.58 89.91 93.58 86.13 97.70 85.51 C 97.62 87.11 97.21 88.63 96.48 90.06 C 102.87 97.14 112.86 99.32 121.97 100.27 C 132.88 100.21 144.06 97.23 152.63 90.23 C 152.12 89.63 151.09 88.44 150.58 87.85 C 150.90 87.23 151.53 86.00 151.85 85.39 C 155.47 86.68 158.79 89.67 159.70 93.50 C 157.98 93.89 156.30 93.63 154.81 92.66 C 150.15 97.13 145.08 101.46 138.92 103.67 C 128.59 106.87 116.86 106.72 107.08 101.83 C 102.20 99.67 98.17 96.08 93.99 92.86 C 92.51 93.40 90.98 93.68 89.40 93.70 Z" />
</g>
<g id="#597575ff">
</g>
<g id="#2e4646ff">
</g>
<g id="#4d6a6aff">
</g>
<g id="#4f7272ff">
</g>
<g id="#4b5858ff">
</g>
<g id="#3c3d3dff">
<path fill="#3c3d3d" opacity="1.00" d=" M 80.06 45.48 C 82.35 44.31 84.68 43.22 86.99 42.10 C 88.96 41.66 90.97 41.39 93.00 41.39 C 110.99 41.46 128.98 41.40 146.97 41.43 C 151.37 41.48 155.80 41.13 160.17 41.81 C 160.60 42.92 161.03 44.04 161.53 45.13 C 161.25 45.18 160.69 45.28 160.42 45.33 C 159.69 49.94 160.12 54.85 158.19 59.19 C 154.62 65.86 145.30 69.17 138.58 65.41 C 131.97 60.34 131.08 51.22 131.62 43.49 C 127.39 43.41 123.17 43.44 118.94 43.59 C 118.60 47.66 117.55 51.87 118.86 55.88 C 118.81 56.11 118.71 56.56 118.66 56.78 C 118.43 56.65 117.97 56.39 117.74 56.26 C 115.51 64.51 105.21 69.30 97.58 65.39 C 91.00 61.16 90.30 52.56 89.44 45.52 C 84.04 48.26 78.54 51.06 72.46 51.91 C 72.58 51.25 72.82 49.93 72.94 49.27 L 73.00 48.96 C 74.23 48.41 75.48 47.88 76.68 47.25 C 77.81 46.68 78.93 46.07 80.06 45.48 M 91.60 43.74 C 91.37 49.79 92.04 56.33 95.69 61.36 C 100.61 67.05 110.39 65.23 114.31 59.32 C 116.47 54.41 116.31 48.90 116.91 43.66 C 108.48 43.28 100.04 43.83 91.60 43.74 M 132.55 43.47 C 133.88 49.11 132.84 55.44 136.34 60.41 C 141.48 68.76 156.83 64.58 157.52 54.98 C 157.96 51.11 158.30 47.22 158.72 43.35 C 150.00 43.32 141.27 43.46 132.55 43.47 Z" />
</g>
<g id="#221f13ff">
<path fill="#221f13" opacity="1.00" d=" M 160.17 41.81 C 164.11 43.56 168.01 45.44 171.99 47.12 C 171.79 47.47 171.40 48.17 171.20 48.52 C 173.69 49.72 176.09 51.12 178.23 52.88 C 172.39 50.94 166.93 48.04 161.53 45.13 C 161.03 44.04 160.60 42.92 160.17 41.81 Z" />
</g>
<g id="#475353ff">
</g>
<g id="#040302ff">
<path fill="#040302" opacity="1.00" d=" M 72.46 51.91 C 78.54 51.06 84.04 48.26 89.44 45.52 C 90.30 52.56 91.00 61.16 97.58 65.39 C 105.21 69.30 115.51 64.51 117.74 56.26 C 117.97 56.39 118.43 56.65 118.66 56.78 C 117.66 64.94 109.10 69.60 101.47 68.79 C 93.24 67.30 88.70 59.18 88.19 51.40 C 88.21 50.79 88.24 49.57 88.25 48.95 C 82.72 51.22 77.29 53.74 71.81 56.15 C 71.50 56.29 70.87 56.57 70.55 56.71 C 69.07 57.06 67.20 56.67 66.81 54.98 C 65.57 51.22 70.54 50.47 72.94 49.27 C 72.82 49.93 72.58 51.25 72.46 51.91 Z" />
</g>
<g id="#ff9b32ff">
<path fill="#ff9b32" opacity="1.00" d=" M 94.84 47.44 C 100.98 47.36 107.13 47.40 113.27 47.41 C 113.30 48.27 113.37 50.00 113.41 50.87 C 110.96 50.87 108.52 50.89 106.08 50.90 C 105.48 50.02 104.83 49.18 104.14 48.38 C 102.72 48.44 102.09 49.79 101.24 50.68 C 99.88 50.83 98.52 50.97 97.17 51.11 C 96.80 53.47 96.39 55.83 96.10 58.20 C 94.80 54.76 94.26 51.09 94.84 47.44 Z" />
<path fill="#ff9b32" opacity="1.00" d=" M 137.18 47.41 C 143.26 47.38 149.34 47.41 155.42 47.40 C 155.47 48.27 155.55 50.01 155.59 50.87 C 152.93 50.84 150.27 50.82 147.61 50.82 C 146.77 49.81 145.85 48.86 144.96 47.90 C 144.26 48.87 143.58 49.85 142.91 50.84 C 141.67 50.94 140.43 51.03 139.19 51.13 C 138.94 53.82 138.69 56.52 138.45 59.22 C 137.31 55.39 136.20 51.41 137.18 47.41 Z" />
</g>
<g id="#ffb21eff">
<path fill="#ffb21e" opacity="1.00" d=" M 120.45 48.21 C 123.38 48.24 126.31 48.25 129.24 48.25 C 129.53 54.15 130.85 60.44 135.14 64.78 C 141.13 71.00 152.18 70.00 157.80 63.78 C 161.02 59.95 162.15 54.92 162.44 50.03 C 167.69 51.98 172.75 54.38 177.95 56.45 C 178.06 57.22 178.30 58.77 178.41 59.54 C 176.95 59.49 175.50 59.43 174.04 59.36 C 170.89 57.50 167.91 54.64 164.23 54.18 C 162.13 57.72 161.86 62.09 159.47 65.47 C 156.24 68.75 151.53 70.21 147.01 70.24 C 141.91 70.43 136.21 69.32 132.77 65.23 C 129.99 61.27 127.98 56.44 128.60 51.51 C 127.31 51.76 125.30 51.27 125.00 53.07 C 123.13 58.12 121.29 63.44 117.43 67.36 C 112.98 71.00 106.55 71.21 101.47 68.79 C 109.10 69.60 117.66 64.94 118.66 56.78 C 118.71 56.56 118.81 56.11 118.86 55.88 C 119.38 53.32 119.89 50.76 120.45 48.21 Z" />
</g>
<g id="#f3a91fff">
<path fill="#f3a91f" opacity="1.00" d=" M 71.81 56.15 C 77.29 53.74 82.72 51.22 88.25 48.95 C 88.24 49.57 88.21 50.79 88.19 51.40 C 81.53 53.36 75.52 57.05 70.77 62.11 C 71.09 60.12 71.46 58.13 71.81 56.15 Z" />
</g>
<g id="#ffd100ff">
<path fill="#ffd100" opacity="1.00" d=" M 106.08 50.90 C 108.52 50.89 110.96 50.87 113.41 50.87 C 113.22 52.66 112.97 54.45 112.67 56.23 C 112.37 54.80 112.02 53.38 111.68 51.97 C 110.30 54.60 109.82 58.40 106.40 59.17 L 105.87 59.15 C 106.11 56.41 106.42 53.65 106.08 50.90 Z" />
</g>
<g id="#ffcf00ff">
<path fill="#ffcf00" opacity="1.00" d=" M 139.19 51.13 C 140.43 51.03 141.67 50.94 142.91 50.84 C 142.16 54.12 142.68 57.46 143.77 60.59 C 142.56 60.65 141.36 60.73 140.16 60.81 L 139.91 60.83 C 139.55 60.43 138.82 59.62 138.45 59.22 C 138.69 56.52 138.94 53.82 139.19 51.13 Z" />
<path fill="#ffcf00" opacity="1.00" d=" M 147.61 50.82 C 150.27 50.82 152.93 50.84 155.59 50.87 C 155.40 52.75 155.09 54.62 154.67 56.46 C 154.51 55.77 154.18 54.40 154.01 53.71 C 152.06 56.36 150.21 59.43 146.83 60.39 C 147.85 57.30 148.48 54.03 147.61 50.82 Z" />
<path fill="#ffcf00" opacity="1.00" d=" M 105.39 59.56 C 105.51 59.45 105.75 59.25 105.87 59.15 C 105.75 59.25 105.51 59.45 105.39 59.56 Z" />
</g>
<g id="#fff221ff">
<path fill="#fff221" opacity="1.00" d=" M 111.68 51.97 C 112.02 53.38 112.37 54.80 112.67 56.23 C 111.72 62.71 102.66 64.62 98.02 60.83 C 99.41 60.64 100.80 60.45 102.19 60.27 L 103.63 61.02 C 104.07 60.65 104.95 59.92 105.39 59.56 C 105.51 59.45 105.75 59.25 105.87 59.15 L 106.40 59.17 C 109.82 58.40 110.30 54.60 111.68 51.97 Z" />
</g>
<g id="#fff321ff">
<path fill="#fff321" opacity="1.00" d=" M 146.83 60.39 C 150.21 59.43 152.06 56.36 154.01 53.71 C 154.18 54.40 154.51 55.77 154.67 56.46 C 153.74 62.67 144.54 64.66 140.16 60.81 C 141.36 60.73 142.56 60.65 143.77 60.59 C 144.53 60.54 146.06 60.44 146.83 60.39 Z" />
</g>
<g id="#ff9c31ff">
<path fill="#ff9c31" opacity="1.00" d=" M 174.04 59.36 C 175.50 59.43 176.95 59.49 178.41 59.54 C 177.38 66.28 178.01 73.16 176.68 79.86 C 175.21 90.80 169.98 101.38 161.34 108.39 C 151.32 116.29 138.87 121.64 125.95 121.41 C 120.09 121.21 113.84 121.57 108.45 118.85 C 117.58 118.12 126.92 119.22 135.86 116.68 C 144.79 113.93 153.62 110.04 160.58 103.68 C 168.75 96.09 171.86 84.74 172.87 73.97 C 173.58 69.12 172.91 64.16 174.04 59.36 Z" />
</g>
<g id="#506a6aff">
</g>
<g id="#536e6eff">
</g>
</svg>
