<?xml version="1.0" encoding="UTF-8" ?>
<!DOCTYPE svg PUBLIC "-//W3C//DTD SVG 1.1//EN" "http://www.w3.org/Graphics/SVG/1.1/DTD/svg11.dtd">
<svg width="159pt" height="316pt" viewBox="0 0 159 316" version="1.1" xmlns="http://www.w3.org/2000/svg">
<g id="#ffffffff">
</g>
<g id="#1a32dbff">
<path fill="#1a32db" opacity="1.00" d=" M 116.72 8.70 C 119.75 5.90 122.12 2.02 126.26 0.76 C 125.13 5.22 121.71 8.48 119.16 12.15 C 112.41 21.22 105.43 30.90 94.99 35.99 C 89.99 38.48 83.94 40.80 78.47 38.36 C 70.88 34.91 63.18 31.09 54.76 30.28 C 44.87 29.68 36.50 36.23 26.91 37.19 C 31.15 33.29 36.67 31.34 41.65 28.60 C 49.08 24.58 58.04 22.29 66.35 24.79 C 74.19 27.14 82.55 27.13 90.63 26.48 C 101.21 24.02 109.23 16.08 116.72 8.70 Z" />
<path fill="#1a32db" opacity="1.00" d=" M 11.24 47.13 C 26.37 40.43 42.52 35.68 59.06 34.28 C 66.74 33.56 72.91 40.66 74.16 47.72 C 77.26 69.13 69.21 89.75 65.58 110.54 C 64.05 118.03 64.59 125.75 65.74 133.26 C 66.60 138.38 68.89 143.67 73.43 146.53 C 78.24 149.56 83.62 151.55 88.42 154.62 C 95.99 159.37 104.04 163.38 111.10 168.90 C 120.50 176.39 130.63 183.57 136.98 194.02 C 144.03 205.76 149.87 218.31 153.37 231.58 C 158.20 248.95 157.36 267.16 157.21 285.00 C 156.80 292.11 156.72 299.26 155.85 306.34 C 154.93 304.30 154.39 302.12 154.22 299.90 C 153.27 290.53 151.45 281.29 150.11 271.98 C 148.19 259.91 146.89 247.49 141.80 236.25 C 138.45 228.45 133.68 221.33 130.71 213.36 C 128.28 206.93 125.27 200.55 120.40 195.59 C 113.28 188.22 104.86 182.29 96.47 176.50 C 88.42 171.10 80.70 165.04 71.70 161.27 C 65.44 158.71 60.10 154.36 55.76 149.22 C 49.71 142.27 47.13 133.11 45.38 124.25 C 43.69 115.01 43.88 105.38 46.14 96.26 C 49.74 80.13 55.65 64.50 57.64 48.04 C 58.14 44.95 54.51 43.78 52.06 44.03 C 40.63 44.22 29.83 48.57 18.75 50.90 C 12.72 52.06 7.22 54.81 1.57 57.08 C 2.93 52.34 6.80 48.96 11.24 47.13 Z" />
<path fill="#1a32db" opacity="1.00" d=" M 84.18 98.15 C 87.70 95.45 91.55 92.63 96.11 92.24 C 100.39 91.77 104.40 93.78 107.84 96.11 C 122.06 105.33 131.01 120.60 136.98 136.08 C 141.67 149.47 143.83 163.54 146.60 177.40 C 149.95 188.69 148.67 200.58 148.66 212.17 C 146.56 206.05 146.27 199.52 144.92 193.22 C 141.80 175.91 135.19 159.41 127.12 143.84 C 121.26 133.40 116.10 122.13 106.98 114.03 C 103.56 111.06 99.88 107.43 95.09 107.25 C 90.42 107.80 86.58 111.53 84.73 115.70 C 82.30 122.04 83.02 128.97 82.43 135.59 C 81.87 138.05 78.60 138.13 76.71 137.23 C 74.19 136.06 70.85 134.28 71.22 130.99 C 71.36 124.13 73.81 117.59 76.20 111.25 C 78.17 106.54 80.01 101.39 84.18 98.15 Z" />
<path fill="#1a32db" opacity="1.00" d=" M 110.69 194.64 C 115.82 197.90 118.54 203.60 121.24 208.82 C 123.60 213.24 124.72 218.70 122.45 223.39 C 109.48 249.45 93.87 274.11 81.11 300.28 C 80.36 301.66 79.41 302.93 78.40 304.14 C 81.80 291.36 87.69 279.42 93.77 267.73 C 100.54 254.60 107.04 241.30 112.60 227.60 C 114.25 223.05 116.44 218.09 114.88 213.21 C 112.93 207.18 110.57 201.09 110.69 194.64 Z" />
</g>
</svg>
