<?xml version="1.0" encoding="UTF-8" ?>
<!DOCTYPE svg PUBLIC "-//W3C//DTD SVG 1.1//EN" "http://www.w3.org/Graphics/SVG/1.1/DTD/svg11.dtd">
<svg width="410pt" height="300pt" viewBox="0 0 410 300" version="1.1" xmlns="http://www.w3.org/2000/svg">
<g id="#ffffffff">
</g>
<g id="#662e91ff">
<path fill="#662e91" opacity="1.00" d=" M 146.08 3.05 C 185.62 2.92 225.17 2.94 264.71 3.04 C 264.67 16.37 264.66 29.70 264.71 43.03 C 259.49 42.48 253.81 42.20 249.22 45.20 C 243.30 48.51 242.03 57.38 246.72 62.27 C 251.52 67.15 258.41 69.04 263.80 73.15 C 262.65 78.06 262.32 83.39 259.74 87.81 C 255.65 88.69 250.79 88.40 247.65 85.33 C 245.45 82.74 245.49 78.90 242.95 76.50 C 241.46 80.05 242.20 84.06 243.24 87.63 C 247.51 91.52 253.86 90.67 259.19 91.04 C 253.04 107.51 243.53 122.69 231.50 135.50 C 226.69 140.41 221.50 145.04 215.56 148.55 C 211.42 150.87 206.49 153.07 201.70 151.43 C 194.43 149.16 188.46 144.13 182.91 139.10 C 169.13 125.80 158.44 109.32 151.75 91.38 C 155.70 90.79 159.91 90.55 163.36 88.32 C 169.12 84.88 170.76 75.90 166.06 70.93 C 161.10 65.51 153.58 63.65 148.09 58.92 C 145.58 56.84 145.71 53.25 146.28 50.34 C 149.00 45.37 155.77 44.90 160.68 46.26 C 164.33 47.32 164.68 51.55 165.60 54.62 C 166.18 54.69 167.33 54.81 167.91 54.88 C 168.02 51.45 167.73 48.02 167.27 44.63 C 160.42 42.16 152.71 41.81 146.07 45.13 C 146.12 31.10 146.07 17.08 146.08 3.05 M 192.93 26.65 C 201.24 27.20 209.63 27.25 217.93 26.63 C 213.87 24.80 209.29 25.92 205.00 25.64 C 200.99 25.89 196.67 24.78 192.93 26.65 M 175.52 39.54 C 175.27 40.12 174.76 41.29 174.50 41.88 C 176.64 42.28 178.90 42.27 180.93 43.14 C 182.66 44.04 182.50 46.30 182.68 47.96 C 182.72 60.32 182.66 72.68 182.71 85.05 C 182.57 87.21 182.77 89.59 181.69 91.55 C 179.87 93.26 177.14 92.89 174.86 93.26 C 174.86 93.96 174.87 95.34 174.87 96.03 C 182.16 95.47 189.47 95.51 196.77 95.91 C 196.82 95.25 196.93 93.94 196.98 93.28 C 194.62 92.97 192.04 93.25 189.92 92.00 C 188.22 89.76 188.46 86.72 188.35 84.06 C 188.50 78.91 188.07 73.74 188.58 68.60 C 190.94 67.72 193.52 68.03 195.99 67.98 C 204.36 68.14 212.74 67.81 221.11 68.17 C 221.37 73.78 221.26 79.41 221.30 85.03 C 221.19 87.36 221.44 89.99 219.96 91.97 C 217.88 93.06 215.46 93.02 213.19 93.35 C 213.21 94.00 213.24 95.30 213.26 95.94 C 220.15 95.69 227.05 95.38 233.95 95.89 C 235.33 96.21 235.55 94.31 236.33 93.58 C 233.67 92.94 230.58 93.31 228.27 91.62 C 227.29 89.23 227.31 86.59 227.28 84.05 C 227.35 72.36 227.28 60.68 227.31 48.99 C 227.52 47.03 227.28 44.47 229.01 43.14 C 231.32 42.34 233.78 42.15 236.16 41.63 C 235.62 40.64 235.38 39.07 233.89 39.37 C 227.87 39.62 221.84 39.90 215.82 39.37 C 214.17 38.83 213.56 40.59 212.70 41.59 C 215.62 42.55 220.78 41.81 221.09 46.05 C 221.54 52.11 221.15 58.21 221.25 64.29 C 215.52 64.92 209.75 64.54 204.00 64.62 C 198.79 64.53 193.53 65.02 188.37 64.12 C 188.47 58.76 188.23 53.41 188.43 48.06 C 188.59 46.21 188.81 43.62 190.96 43.02 C 193.26 42.03 196.76 42.76 197.63 39.78 C 193.45 38.97 189.21 39.84 185.00 39.68 C 181.84 39.78 178.68 39.28 175.52 39.54 M 178.44 110.00 L 179.65 110.02 C 184.26 111.70 189.21 110.90 194.00 110.93 C 204.01 110.86 214.02 110.81 224.02 111.01 C 226.24 111.08 228.43 110.66 230.55 110.04 L 231.89 110.03 C 231.61 109.60 231.05 108.75 230.77 108.32 C 215.54 107.73 200.23 108.37 184.97 108.03 C 182.71 108.18 179.57 107.37 178.44 110.00 Z" />
</g>
<g id="#fbd1ffff">
<path fill="#fbd1ff" opacity="1.00" d=" M 192.93 26.65 C 196.67 24.78 200.99 25.89 205.00 25.64 C 209.29 25.92 213.87 24.80 217.93 26.63 C 209.63 27.25 201.24 27.20 192.93 26.65 Z" />
</g>
<g id="#fefbfeff">
</g>
<g id="#662e8fff">
<path fill="#662e8f" opacity="1.00" d=" M 250.46 48.42 C 254.18 44.78 259.92 45.47 264.59 46.42 C 264.75 53.36 264.70 60.31 264.63 67.26 C 260.25 64.68 255.53 62.61 251.47 59.52 C 248.04 57.03 247.17 51.40 250.46 48.42 Z" />
</g>
<g id="#652e8fff">
<path fill="#652e8f" opacity="1.00" d=" M 145.95 64.41 C 150.70 67.23 155.84 69.44 160.33 72.69 C 164.16 75.37 165.14 81.42 161.92 84.93 C 159.09 88.12 154.46 88.41 150.49 88.03 C 148.15 80.34 146.54 72.43 145.95 64.41 Z" />
</g>
<g id="#cbaae3ff">
<path fill="#cbaae3" opacity="1.00" d=" M 178.44 110.00 C 179.57 107.37 182.71 108.18 184.97 108.03 C 200.23 108.37 215.54 107.73 230.77 108.32 C 231.05 108.75 231.61 109.60 231.89 110.03 L 230.55 110.04 C 213.58 109.97 196.62 110.00 179.65 110.02 L 178.44 110.00 Z" />
</g>
<g id="#501f76ff">
<path fill="#501f76" opacity="1.00" d=" M 179.65 110.02 C 196.62 110.00 213.58 109.97 230.55 110.04 C 228.43 110.66 226.24 111.08 224.02 111.01 C 214.02 110.81 204.01 110.86 194.00 110.93 C 189.21 110.90 184.26 111.70 179.65 110.02 Z" />
</g>
<g id="#612e88ff">
<path fill="#612e88" opacity="1.00" d=" M 392.23 162.62 C 395.73 160.63 399.31 158.79 402.85 156.86 C 402.88 173.25 402.85 189.63 402.84 206.02 C 402.84 209.18 403.19 212.33 403.63 215.46 C 405.75 215.61 407.87 215.71 410.00 215.80 L 410.00 217.65 C 406.52 219.00 402.97 220.17 399.53 221.62 C 398.93 219.86 398.36 218.09 397.79 216.32 C 395.42 217.78 393.10 219.38 390.46 220.34 C 384.29 222.54 376.67 220.59 372.75 215.22 C 366.47 206.56 368.88 192.71 378.24 187.20 C 384.18 183.33 391.58 184.02 398.24 185.04 C 398.14 178.88 398.98 172.57 397.52 166.52 C 396.20 164.72 393.99 163.90 392.23 162.62 M 384.38 187.44 C 372.10 190.53 370.95 210.49 382.03 215.84 C 386.35 217.86 391.65 217.19 395.57 214.59 C 398.99 212.24 398.18 207.57 398.35 204.00 C 398.06 199.59 399.08 194.89 397.30 190.72 C 394.38 186.78 388.77 186.80 384.38 187.44 Z" />
</g>
<g id="#632e8fff">
<path fill="#632e8f" opacity="1.00" d=" M 124.28 166.34 C 127.47 165.55 130.14 170.12 127.67 172.48 C 126.56 174.44 123.64 174.37 122.34 172.65 C 119.89 170.80 121.47 166.75 124.28 166.34 Z" />
</g>
<g id="#632f8aff">
<path fill="#632f8a" opacity="1.00" d=" M 11.02 170.00 C 17.80 166.67 26.31 166.70 33.10 169.82 C 34.82 173.10 34.13 177.18 34.19 180.80 C 33.54 180.75 32.23 180.66 31.57 180.61 C 30.72 177.25 30.45 172.70 26.58 171.40 C 21.00 169.49 12.94 170.31 10.24 176.33 C 8.32 180.80 11.54 185.49 15.39 187.64 C 21.01 191.35 27.71 193.65 32.26 198.80 C 37.22 204.67 35.36 214.93 28.50 218.51 C 22.85 221.60 15.97 221.80 9.85 220.12 C 7.77 219.50 5.43 218.94 3.96 217.22 C 2.97 213.61 2.93 209.82 2.70 206.11 C 3.42 206.14 4.88 206.20 5.60 206.23 C 6.51 209.65 6.97 213.72 10.14 215.89 C 15.02 219.14 21.75 218.78 26.52 215.50 C 30.23 212.56 31.06 206.71 27.98 203.00 C 22.40 196.19 12.26 195.17 7.06 187.89 C 3.09 182.20 4.70 173.29 11.02 170.00 Z" />
</g>
<g id="#61308aff">
<path fill="#61308a" opacity="1.00" d=" M 212.91 186.19 C 214.85 184.68 216.67 182.77 219.15 182.19 C 221.24 181.74 223.43 183.73 223.08 185.90 C 222.52 186.90 221.82 187.83 221.15 188.76 C 219.25 188.45 216.33 185.72 215.18 188.31 C 215.55 191.89 217.65 195.26 216.93 198.94 C 216.21 204.50 211.28 208.91 205.79 209.51 C 201.98 210.18 198.18 208.91 194.38 209.26 C 191.23 210.42 190.61 215.66 194.02 216.98 C 201.64 220.03 210.54 216.08 217.90 220.15 C 221.98 222.46 222.34 227.91 220.85 231.89 C 218.87 237.91 212.70 241.39 206.76 242.41 C 201.10 243.26 194.80 243.40 189.77 240.24 C 185.89 237.83 184.07 232.39 186.28 228.27 C 187.75 224.95 191.46 223.73 194.32 221.92 C 191.63 220.87 188.02 219.91 187.48 216.57 C 186.27 212.42 190.02 209.44 192.67 206.92 C 190.97 204.52 189.17 202.00 188.77 199.01 C 188.13 193.74 190.96 188.13 195.80 185.81 C 201.17 183.09 207.49 184.18 212.91 186.19 M 199.36 187.40 C 193.64 189.62 193.14 197.08 194.93 202.11 C 197.15 208.40 207.07 208.92 210.39 203.37 C 212.57 199.54 212.25 194.61 210.22 190.79 C 208.11 187.12 203.19 185.75 199.36 187.40 M 198.51 222.77 C 194.85 223.81 190.84 226.15 190.02 230.17 C 189.18 233.61 191.54 237.01 194.60 238.40 C 199.60 240.62 205.50 240.64 210.54 238.53 C 213.64 237.09 216.50 234.37 216.94 230.83 C 217.38 228.02 216.48 224.56 213.53 223.50 C 208.77 221.72 203.45 221.95 198.51 222.77 Z" />
</g>
<g id="#632f8cff">
<path fill="#632f8c" opacity="1.00" d=" M 87.15 188.81 C 90.35 186.56 93.82 184.75 97.28 182.94 C 97.66 185.26 97.83 187.61 98.01 189.95 C 101.32 186.75 105.62 182.56 110.64 184.17 C 113.70 184.75 114.41 189.52 111.72 191.01 C 109.12 192.16 107.22 189.16 104.91 188.44 C 101.12 189.39 98.40 193.18 98.32 197.04 C 98.07 201.72 98.21 206.40 98.21 211.08 C 98.36 213.10 98.12 215.85 100.30 216.91 C 102.14 217.46 104.09 217.39 106.00 217.56 C 105.95 218.15 105.87 219.32 105.83 219.91 C 99.63 219.52 93.42 219.51 87.23 219.91 C 87.22 219.34 87.21 218.20 87.20 217.64 C 89.05 217.37 90.90 217.06 92.74 216.70 C 94.07 211.55 93.49 206.20 93.61 200.95 C 93.57 198.08 93.76 195.09 92.74 192.34 C 91.36 190.56 89.00 189.96 87.15 188.81 Z" />
<path fill="#632f8c" opacity="1.00" d=" M 41.03 188.82 C 44.25 186.58 47.67 184.65 51.21 182.99 C 51.59 185.32 51.78 187.67 51.99 190.01 C 57.18 185.99 63.85 182.04 70.61 184.47 C 78.37 187.16 81.46 196.53 80.16 204.06 C 79.31 211.05 74.63 217.80 67.62 219.68 C 62.59 221.54 57.26 220.37 52.17 219.56 C 52.23 224.39 52.05 229.22 52.21 234.05 C 52.38 235.76 52.27 237.87 53.85 239.00 C 56.24 239.87 58.85 239.79 61.32 240.36 C 60.83 241.19 60.25 241.95 59.58 242.65 C 54.45 242.47 49.32 241.61 44.18 242.31 C 42.73 242.58 40.08 242.45 41.20 240.29 C 42.84 239.78 44.55 239.57 46.18 239.01 C 47.54 237.76 47.40 235.70 47.54 234.02 C 47.59 222.67 47.49 211.31 47.57 199.95 C 47.56 197.41 47.60 194.78 46.75 192.35 C 45.24 190.64 42.94 189.97 41.03 188.82 M 59.39 188.45 C 56.27 189.57 52.87 191.74 52.39 195.32 C 51.90 199.54 52.24 203.81 52.15 208.05 C 52.27 210.64 51.96 213.91 54.40 215.58 C 60.49 219.53 69.80 217.88 73.52 211.44 C 76.45 205.99 76.05 199.14 73.32 193.69 C 70.80 188.83 64.49 186.50 59.39 188.45 Z" />
</g>
<g id="#642f8dff">
<path fill="#642f8d" opacity="1.00" d=" M 117.33 188.32 C 120.85 186.35 124.44 184.47 128.16 182.90 C 128.30 188.93 127.80 194.96 127.97 200.99 C 128.13 206.30 127.31 211.78 129.02 216.92 C 130.94 217.18 132.87 217.39 134.80 217.59 C 134.81 218.17 134.82 219.33 134.83 219.91 C 128.92 219.52 122.99 219.45 117.08 219.93 C 117.11 219.36 117.16 218.22 117.18 217.65 C 118.96 217.36 120.81 217.26 122.47 216.51 C 123.92 213.20 123.35 209.50 123.46 206.00 C 123.29 201.75 123.91 197.40 122.86 193.23 C 122.29 190.39 118.02 190.92 117.33 188.32 Z" />
</g>
<g id="#612e89ff">
<path fill="#612e89" opacity="1.00" d=" M 139.93 188.94 C 143.24 186.79 146.63 184.74 150.18 183.01 C 150.51 185.35 150.69 187.70 150.89 190.06 C 155.50 186.54 160.86 183.01 166.97 183.81 C 170.93 184.10 173.79 187.67 174.31 191.43 C 175.56 199.18 174.20 207.08 175.07 214.86 C 174.96 218.00 178.95 217.14 181.01 217.56 C 181.07 218.16 181.19 219.37 181.25 219.97 C 175.52 219.47 169.76 219.48 164.03 219.93 C 164.05 219.36 164.09 218.23 164.11 217.67 C 165.86 217.37 167.76 217.40 169.33 216.42 C 170.92 211.45 170.05 206.12 170.25 200.99 C 169.98 197.35 170.34 193.15 167.95 190.13 C 163.34 185.56 155.48 188.30 152.08 193.02 C 150.46 196.42 150.94 200.34 150.83 204.00 C 150.95 208.09 150.51 212.34 151.83 216.28 C 153.47 217.62 155.74 217.27 157.70 217.59 C 157.72 218.18 157.75 219.36 157.77 219.95 C 151.86 219.51 145.93 219.44 140.03 219.92 C 140.05 219.35 140.09 218.20 140.11 217.62 C 141.83 217.23 143.99 217.71 145.39 216.45 C 147.04 212.51 146.38 208.15 146.51 204.00 C 146.36 200.16 147.02 196.13 145.57 192.47 C 144.00 190.87 141.82 190.08 139.93 188.94 Z" />
</g>
<g id="#622f8bff">
<path fill="#622f8b" opacity="1.00" d=" M 297.39 184.58 C 303.86 183.35 311.50 184.85 315.55 190.45 C 320.50 197.37 319.94 207.32 315.28 214.24 C 309.26 222.58 295.91 223.42 288.49 216.51 C 281.91 210.16 281.60 198.96 286.55 191.56 C 289.00 187.85 293.08 185.44 297.39 184.58 M 297.31 187.28 C 292.29 188.76 289.51 193.98 288.98 198.90 C 288.49 203.79 289.07 209.04 291.71 213.28 C 294.88 218.47 302.67 220.29 307.64 216.63 C 314.54 211.40 314.61 200.93 311.49 193.56 C 309.25 188.25 302.75 185.34 297.31 187.28 Z" />
</g>
<g id="#612f8cff">
<path fill="#612f8c" opacity="1.00" d=" M 340.41 184.59 C 347.11 183.26 355.02 185.03 359.01 190.99 C 363.44 197.94 362.87 207.53 358.29 214.27 C 351.77 223.43 336.26 223.42 329.64 214.38 C 325.38 208.37 325.21 199.91 328.47 193.41 C 330.72 188.76 335.41 185.59 340.41 184.59 M 340.31 187.27 C 334.90 188.92 332.26 194.74 331.90 200.01 C 331.64 205.20 332.50 210.91 336.06 214.94 C 340.34 219.65 348.68 219.85 352.78 214.78 C 357.31 209.03 357.33 200.73 354.79 194.12 C 352.77 188.47 345.95 185.25 340.31 187.27 Z" />
</g>
<g id="#622f89ff">
<path fill="#622f89" opacity="1.00" d=" M 224.26 185.10 C 229.85 185.15 235.45 185.43 241.02 184.80 C 241.23 185.39 241.63 186.56 241.84 187.14 C 239.54 187.42 237.24 187.67 234.96 188.05 C 235.56 195.79 238.56 203.08 240.66 210.49 C 240.93 210.57 241.47 210.73 241.74 210.81 C 245.62 202.43 248.11 193.43 252.27 185.19 C 252.62 185.21 253.34 185.26 253.70 185.28 C 257.67 193.89 260.31 203.11 264.34 211.72 C 267.23 204.14 270.07 196.31 270.84 188.20 C 268.57 187.70 266.27 187.41 263.97 187.12 C 264.21 186.52 264.69 185.33 264.93 184.74 C 270.03 185.36 275.16 185.24 280.28 185.10 C 280.16 185.63 279.93 186.68 279.81 187.21 C 278.45 187.67 276.68 187.44 275.68 188.61 C 274.57 190.37 274.01 192.40 273.36 194.36 C 270.62 203.26 267.71 212.10 264.82 220.95 C 264.24 220.91 263.07 220.84 262.49 220.81 C 259.26 211.78 255.98 202.76 252.03 194.02 C 247.85 202.91 244.97 212.35 240.87 221.26 C 239.35 221.35 238.57 220.15 238.25 218.83 C 235.26 209.12 232.55 199.31 229.28 189.69 C 228.78 187.40 226.16 187.60 224.37 187.17 C 224.34 186.65 224.29 185.62 224.26 185.10 Z" />
</g>
<g id="#fefdfdff">
</g>
<g id="#fefefdff">
</g>
<g id="#fffefeff">
</g>
<g id="#fefefeff">
</g>
<g id="#fefdfeff">
</g>
<g id="#436b50ff">
<path fill="#436b50" opacity="1.00" d=" M 162.84 256.78 C 164.56 256.01 166.28 255.22 168.00 254.44 C 168.01 259.97 167.89 265.50 167.99 271.04 C 170.69 269.49 173.56 267.70 176.82 268.15 C 179.00 268.05 180.41 270.22 180.60 272.17 C 181.16 276.34 180.55 280.56 180.92 284.75 C 181.93 285.72 183.19 286.37 184.33 287.18 C 181.46 287.30 178.60 287.31 175.73 287.28 C 176.95 286.04 178.81 284.94 178.56 282.92 C 178.51 279.17 179.24 275.05 177.46 271.59 C 174.79 269.07 170.16 270.49 168.34 273.37 C 167.51 277.33 168.03 281.44 168.18 285.45 C 169.57 285.93 170.97 286.42 172.35 286.96 C 169.11 287.39 165.83 287.35 162.57 287.19 C 163.62 286.35 164.68 285.54 165.73 284.72 C 165.70 277.15 165.79 269.59 165.74 262.02 C 166.04 259.77 164.14 258.30 162.84 256.78 Z" />
</g>
<g id="#2f503aff">
<path fill="#2f503a" opacity="1.00" d=" M 235.03 256.88 C 236.83 256.16 238.62 255.40 240.40 254.64 C 240.46 260.14 240.39 265.65 240.46 271.16 C 243.60 269.18 247.47 267.14 251.22 268.73 C 254.98 273.39 252.64 279.94 253.31 285.44 C 254.62 285.94 255.92 286.45 257.22 286.99 C 254.08 287.34 250.91 287.29 247.76 287.21 C 248.97 286.22 250.89 285.68 251.03 283.86 C 251.41 280.36 251.45 276.76 250.70 273.31 C 250.56 271.43 248.63 270.27 246.89 270.25 C 244.45 270.02 242.48 271.72 240.50 272.87 C 240.39 276.98 240.44 281.09 240.41 285.21 C 241.75 285.81 243.10 286.40 244.43 287.03 C 241.19 287.33 237.93 287.33 234.68 287.11 C 235.89 286.41 237.11 285.75 238.33 285.08 C 238.23 277.05 238.44 269.01 238.26 260.99 C 238.28 259.04 236.21 258.10 235.03 256.88 Z" />
</g>
<g id="#345940ff">
<path fill="#345940" opacity="1.00" d=" M 304.89 256.94 C 306.56 256.14 308.22 255.34 309.89 254.54 C 309.90 264.02 309.74 273.50 309.89 282.98 C 309.47 285.51 312.51 285.87 314.07 287.04 C 310.62 286.81 307.16 286.76 303.70 286.89 C 305.01 286.16 306.36 285.48 307.69 284.78 C 307.74 276.88 307.82 268.96 307.68 261.06 C 307.89 259.13 305.98 258.19 304.89 256.94 Z" />
<path fill="#345940" opacity="1.00" d=" M 129.89 270.74 C 131.76 269.80 133.60 268.82 135.46 267.86 C 135.53 273.63 135.49 279.40 135.48 285.17 C 136.79 285.77 138.12 286.37 139.42 287.01 C 136.18 287.35 132.92 287.34 129.68 287.15 C 130.71 286.38 131.76 285.63 132.80 284.87 C 132.69 281.05 133.02 277.21 132.64 273.40 C 131.87 272.37 130.82 271.61 129.89 270.74 Z" />
</g>
<g id="#41624aff">
<path fill="#41624a" opacity="1.00" d=" M 131.71 259.74 C 132.99 259.78 134.87 258.64 135.52 260.31 C 135.51 261.25 135.44 262.19 135.32 263.13 C 134.54 263.02 132.97 262.81 132.19 262.71 C 132.07 261.97 131.83 260.48 131.71 259.74 Z" />
<path fill="#41624a" opacity="1.00" d=" M 222.99 269.01 C 226.74 267.30 231.66 268.57 232.96 272.78 C 232.16 273.55 231.35 274.31 230.55 275.08 C 229.66 273.45 229.01 271.70 228.46 269.93 C 226.77 269.83 224.90 269.18 223.36 270.17 C 217.24 273.53 218.79 285.09 226.08 285.82 C 229.59 286.40 231.16 282.76 233.24 280.70 C 233.50 287.70 223.88 289.75 219.57 285.42 C 215.23 280.60 216.71 271.43 222.99 269.01 Z" />
</g>
<g id="#3e654dff">
<path fill="#3e654d" opacity="1.00" d=" M 96.84 260.19 C 100.73 260.36 104.61 260.42 108.51 260.39 C 107.16 261.19 105.77 261.91 104.38 262.63 C 104.24 265.88 104.24 269.13 104.21 272.38 C 109.23 272.60 114.26 272.56 119.29 272.44 C 119.34 269.32 119.51 266.20 119.27 263.09 C 118.03 262.01 116.57 261.21 115.24 260.27 C 119.23 260.34 123.22 260.41 127.22 260.38 C 125.66 261.18 124.06 261.88 122.46 262.59 C 122.38 269.85 122.10 277.14 122.53 284.38 C 123.59 285.65 125.31 286.10 126.64 287.02 C 122.91 286.87 119.18 286.76 115.46 287.01 C 116.66 286.21 117.93 285.50 119.07 284.61 C 119.67 281.18 119.28 277.67 119.25 274.21 C 114.25 274.14 109.25 274.15 104.26 274.21 C 104.26 277.70 104.26 281.18 104.29 284.67 C 105.69 285.44 107.10 286.19 108.48 287.01 C 104.56 286.87 100.64 286.83 96.73 286.91 C 98.20 286.18 99.71 285.53 101.22 284.87 C 101.23 277.61 101.44 270.33 101.13 263.07 C 99.79 261.98 98.26 261.15 96.84 260.19 Z" />
</g>
<g id="#40664cff">
<path fill="#40664c" opacity="1.00" d=" M 200.79 260.88 C 204.46 258.97 208.67 259.89 212.50 260.69 C 212.60 262.81 212.65 264.93 212.44 267.05 C 211.28 265.37 210.42 263.49 209.13 261.91 C 205.45 260.11 198.76 261.76 199.68 266.88 C 202.46 272.08 209.81 272.28 212.70 277.43 C 214.44 280.68 212.46 284.80 209.38 286.41 C 205.72 288.24 201.30 287.89 197.62 286.33 C 196.28 284.27 196.56 281.69 196.46 279.36 C 197.95 281.04 198.65 283.23 199.96 285.03 C 202.77 286.74 206.84 286.63 209.14 284.12 C 210.85 282.50 210.64 279.51 209.05 277.90 C 206.17 274.95 201.77 274.10 199.02 271.00 C 196.42 268.05 197.01 262.55 200.79 260.88 Z" />
</g>
<g id="#3e634aff">
<path fill="#3e634a" opacity="1.00" d=" M 144.72 270.65 C 147.59 267.53 152.12 268.29 155.71 269.49 C 157.32 268.70 158.98 268.02 160.70 267.48 C 160.80 268.27 161.01 269.87 161.12 270.66 C 159.68 270.44 158.25 270.21 156.82 269.99 C 157.44 273.26 158.63 277.23 155.95 279.94 C 152.90 282.66 148.52 281.62 144.82 281.74 C 144.75 282.62 144.61 284.39 144.54 285.27 C 148.69 286.70 153.12 285.87 157.35 286.72 C 160.51 287.77 160.35 291.81 159.25 294.34 C 157.12 298.25 152.15 299.11 148.09 298.80 C 145.24 298.73 141.87 297.08 141.55 293.95 C 141.12 291.44 143.44 289.87 144.91 288.25 C 144.05 287.36 143.14 286.52 142.42 285.53 C 141.86 283.61 143.56 282.08 144.44 280.58 C 142.64 277.55 141.64 273.25 144.72 270.65 M 148.28 269.93 C 145.13 271.48 145.06 275.80 146.29 278.63 C 148.04 282.36 154.90 281.15 154.71 276.76 C 155.85 272.90 152.54 268.01 148.28 269.93 M 148.45 288.55 C 145.62 289.06 142.87 291.68 143.88 294.76 C 147.36 299.15 157.27 298.35 157.83 291.99 C 157.24 287.72 151.65 288.13 148.45 288.55 Z" />
</g>
<g id="#41634bff">
<path fill="#41634b" opacity="1.00" d=" M 267.43 268.60 C 270.88 267.88 274.93 269.02 276.98 272.02 C 279.42 275.72 278.99 280.89 276.39 284.40 C 272.49 289.15 263.88 288.58 260.91 283.10 C 257.80 277.66 260.89 269.46 267.43 268.60 M 266.36 270.20 C 259.93 273.75 261.94 286.83 269.97 286.50 C 275.46 285.88 276.37 279.01 275.23 274.67 C 274.57 270.76 269.91 268.13 266.36 270.20 Z" />
</g>
<g id="#3d654cff">
<path fill="#3d654c" opacity="1.00" d=" M 289.50 268.71 C 292.76 267.87 296.51 268.67 298.93 271.08 C 302.60 275.20 301.93 282.20 297.68 285.67 C 294.20 288.28 288.91 288.33 285.55 285.47 C 279.97 280.91 282.14 270.06 289.50 268.71 M 289.26 269.98 C 285.05 272.25 284.72 277.83 286.06 281.91 C 287.04 285.43 291.33 287.72 294.69 285.89 C 298.79 283.46 299.11 277.59 297.51 273.56 C 296.44 270.27 292.38 268.62 289.26 269.98 Z" />
</g>
<g id="#f9fefaff">
</g>
<g id="#fbfdfbff">
</g>
<g id="#fcfefcff">
</g>
<g id="#fbfdfaff">
</g>
</svg>
